<svg width="43" height="56" viewBox="0 0 43 56" fill="none" xmlns="http://www.w3.org/2000/svg">
<path d="M30.485 0H1.463C0.655 0 0 0.655 0 1.926V55C0 55.345 0.655 56 1.463 56H41.537C42.345 56 43 55.345 43 55V12.978C43 12.282 42.907 12.058 42.743 11.893L31.107 0.257C30.942 0.093 30.718 0 30.485 0Z" fill="#E9E9E0"/>
<path d="M31 0.150879V11.9999H42.849L31 0.150879Z" fill="#D9D7CA"/>
<path d="M19 35C24.5228 35 29 30.5228 29 25C29 19.4772 24.5228 15 19 15C13.4772 15 9 19.4772 9 25C9 30.5228 13.4772 35 19 35Z" fill="white"/>
<path d="M19 36C12.935 36 8 31.065 8 25C8 18.935 12.935 14 19 14C25.065 14 30 18.935 30 25C30 31.065 25.065 36 19 36ZM19 16C14.037 16 10 20.037 10 25C10 29.963 14.037 34 19 34C23.963 34 28 29.963 28 25C28 20.037 23.963 16 19 16Z" fill="#556080"/>
<path d="M36 45C35.744 45 35.488 44.902 35.293 44.707L24.293 33.707C23.902 33.316 23.902 32.684 24.293 32.293C24.684 31.902 25.316 31.902 25.707 32.293L36.707 43.293C37.098 43.684 37.098 44.316 36.707 44.707C36.512 44.902 36.256 45 36 45Z" fill="#556080"/>
<path d="M19 22H13C12.447 22 12 21.553 12 21C12 20.447 12.447 20 13 20H19C19.553 20 20 20.447 20 21C20 21.553 19.553 22 19 22Z" fill="#D1D4D1"/>
<path d="M24 22H22C21.447 22 21 21.553 21 21C21 20.447 21.447 20 22 20H24C24.553 20 25 20.447 25 21C25 21.553 24.553 22 24 22Z" fill="#D1D4D1"/>
<path d="M18 30H16C15.447 30 15 29.553 15 29C15 28.447 15.447 28 16 28H18C18.553 28 19 28.447 19 29C19 29.553 18.553 30 18 30Z" fill="#D1D4D1"/>
<path d="M24 30H22C21.447 30 21 29.553 21 29C21 28.447 21.447 28 22 28H24C24.553 28 25 28.447 25 29C25 29.553 24.553 30 24 30Z" fill="#D1D4D1"/>
<path d="M17 26H13C12.447 26 12 25.553 12 25C12 24.447 12.447 24 13 24H17C17.553 24 18 24.447 18 25C18 25.553 17.553 26 17 26Z" fill="#D1D4D1"/>
<path d="M26 26H21C20.447 26 20 25.553 20 25C20 24.447 20.447 24 21 24H26C26.553 24 27 24.447 27 25C27 25.553 26.553 26 26 26Z" fill="#D1D4D1"/>
</svg>
