<svg width="587" height="96" viewBox="0 0 587 96" fill="none" xmlns="http://www.w3.org/2000/svg">
<path d="M50.485 20H21.463C20.655 20 20 20.655 20 21.926V75C20 75.345 20.655 76 21.463 76H61.537C62.345 76 63 75.345 63 75V32.978C63 32.282 62.907 32.058 62.743 31.893L51.107 20.257C50.942 20.093 50.718 20 50.485 20Z" fill="#E9E9E0"/>
<path d="M51 20.1509V31.9999H62.849L51 20.1509Z" fill="#D9D7CA"/>
<path d="M32.431 39.0001C34.9544 39.0001 37 36.9544 37 34.4311C37 31.9077 34.9544 29.8621 32.431 29.8621C29.9076 29.8621 27.862 31.9077 27.862 34.4311C27.862 36.9544 29.9076 39.0001 32.431 39.0001Z" fill="#F3D55B"/>
<path d="M20 59H31H63V48L53 38.5L42.5 50L37.017 44.517L20 59Z" fill="#26B99A"/>
<path d="M61.537 76H21.463C20.655 76 20 75.345 20 74.537V59H63V74.537C63 75.345 62.345 76 61.537 76Z" fill="#14A085"/>
<path d="M34.926 62.6499V70.4979C34.926 70.9719 34.839 71.3709 34.666 71.6939C34.493 72.0169 34.26 72.2769 33.969 72.4729C33.677 72.6689 33.342 72.8059 32.964 72.8829C32.585 72.9609 32.196 72.9999 31.795 72.9999C31.594 72.9999 31.359 72.9789 31.091 72.9379C30.822 72.8969 30.544 72.8339 30.257 72.7469C29.97 72.6599 29.694 72.5619 29.43 72.4529C29.165 72.3439 28.942 72.2209 28.76 72.0839L29.457 70.9769C29.548 71.0399 29.678 71.1069 29.847 71.1749C30.015 71.2429 30.2 71.3069 30.401 71.3659C30.601 71.4259 30.811 71.4769 31.03 71.5229C31.249 71.5689 31.454 71.5909 31.645 71.5909C32.128 71.5909 32.513 71.4969 32.8 71.3109C33.087 71.1249 33.239 70.8069 33.258 70.3609V62.6499H34.926Z" fill="white"/>
<path d="M39.014 72.932H37.373V62.855H40.271C40.699 62.855 41.123 62.923 41.542 63.06C41.961 63.197 42.337 63.402 42.67 63.675C43.003 63.948 43.272 64.279 43.477 64.666C43.682 65.053 43.785 65.488 43.785 65.972C43.785 66.483 43.698 66.945 43.525 67.36C43.352 67.775 43.11 68.124 42.8 68.406C42.49 68.688 42.116 68.907 41.679 69.062C41.242 69.217 40.758 69.294 40.23 69.294H39.013V72.932H39.014ZM39.014 64.1V68.092H40.518C40.718 68.092 40.916 68.058 41.113 67.989C41.309 67.921 41.489 67.809 41.653 67.654C41.817 67.499 41.949 67.283 42.049 67.005C42.149 66.727 42.199 66.383 42.199 65.973C42.199 65.809 42.176 65.619 42.131 65.406C42.085 65.192 41.992 64.987 41.851 64.791C41.709 64.595 41.511 64.431 41.256 64.299C41 64.166 40.663 64.1 40.244 64.1H39.014Z" fill="white"/>
<path d="M53 67.7359V71.6319C52.79 71.8969 52.556 72.1119 52.296 72.2809C52.036 72.4499 51.763 72.5889 51.476 72.6979C51.189 72.8069 50.893 72.8849 50.587 72.9299C50.281 72.9779 49.979 72.9999 49.678 72.9999C49.076 72.9999 48.523 72.8909 48.017 72.6719C47.511 72.4529 47.069 72.1299 46.691 71.7009C46.313 71.2719 46.016 70.7349 45.802 70.0879C45.588 69.4409 45.481 68.6929 45.481 67.8459C45.481 66.9989 45.588 66.2529 45.802 65.6109C46.016 64.9679 46.312 64.4329 46.691 64.0049C47.069 63.5759 47.513 63.2509 48.024 63.0269C48.534 62.8029 49.086 62.6919 49.678 62.6919C50.225 62.6919 50.735 62.7829 51.209 62.9649C51.683 63.1479 52.106 63.4209 52.48 63.7849L51.345 64.7969C51.126 64.5319 50.875 64.3409 50.593 64.2229C50.31 64.1049 50.019 64.0449 49.718 64.0449C49.381 64.0449 49.059 64.1079 48.754 64.2359C48.448 64.3639 48.175 64.5799 47.934 64.8849C47.692 65.1909 47.503 65.5839 47.367 66.0679C47.231 66.5519 47.157 67.1429 47.148 67.8449C47.157 68.5289 47.228 69.1209 47.36 69.6219C47.492 70.1229 47.674 70.5329 47.907 70.8519C48.14 71.1709 48.404 71.4079 48.7 71.5629C48.996 71.7179 49.308 71.7949 49.637 71.7949C49.737 71.7949 49.871 71.7879 50.04 71.7739C50.208 71.7599 50.377 71.7379 50.546 71.7059C50.714 71.6739 50.876 71.6309 51.031 71.5759C51.186 71.5209 51.3 71.4439 51.373 71.3439V68.8559H49.664V67.7349H53V67.7359Z" fill="white"/>
<path d="M330.485 20H301.463C300.655 20 300 20.655 300 21.926V75C300 75.345 300.655 76 301.463 76H341.537C342.345 76 343 75.345 343 75V32.978C343 32.282 342.907 32.058 342.743 31.893L331.107 20.257C330.942 20.093 330.718 20 330.485 20Z" fill="#E9E9E0"/>
<path d="M331 20.1509V31.9999H342.849L331 20.1509Z" fill="#D9D7CA"/>
<path d="M312.431 39.0001C314.954 39.0001 317 36.9544 317 34.4311C317 31.9077 314.954 29.8621 312.431 29.8621C309.908 29.8621 307.862 31.9077 307.862 34.4311C307.862 36.9544 309.908 39.0001 312.431 39.0001Z" fill="#F3D55B"/>
<path d="M300 59H311H343V48L333 38.5L322.5 50L317.017 44.517L300 59Z" fill="#26B99A"/>
<path d="M341.537 76H301.463C300.655 76 300 75.345 300 74.537V59H343V74.537C343 75.345 342.345 76 341.537 76Z" fill="#14A085"/>
<path d="M314.926 62.6499V70.4979C314.926 70.9719 314.839 71.3709 314.666 71.6939C314.493 72.0169 314.26 72.2769 313.969 72.4729C313.677 72.6689 313.342 72.8059 312.964 72.8829C312.585 72.9609 312.196 72.9999 311.795 72.9999C311.594 72.9999 311.359 72.9789 311.091 72.9379C310.822 72.8969 310.544 72.8339 310.257 72.7469C309.97 72.6599 309.694 72.5619 309.43 72.4529C309.165 72.3439 308.942 72.2209 308.76 72.0839L309.457 70.9769C309.548 71.0399 309.678 71.1069 309.847 71.1749C310.015 71.2429 310.2 71.3069 310.401 71.3659C310.601 71.4259 310.811 71.4769 311.03 71.5229C311.249 71.5689 311.454 71.5909 311.645 71.5909C312.128 71.5909 312.513 71.4969 312.8 71.3109C313.087 71.1249 313.239 70.8069 313.258 70.3609V62.6499H314.926Z" fill="white"/>
<path d="M319.014 72.932H317.373V62.855H320.271C320.699 62.855 321.123 62.923 321.542 63.06C321.961 63.197 322.337 63.402 322.67 63.675C323.003 63.948 323.272 64.279 323.477 64.666C323.682 65.053 323.785 65.488 323.785 65.972C323.785 66.483 323.698 66.945 323.525 67.36C323.352 67.775 323.11 68.124 322.8 68.406C322.49 68.688 322.116 68.907 321.679 69.062C321.242 69.217 320.758 69.294 320.23 69.294H319.013V72.932H319.014ZM319.014 64.1V68.092H320.518C320.718 68.092 320.916 68.058 321.113 67.989C321.309 67.921 321.489 67.809 321.653 67.654C321.817 67.499 321.949 67.283 322.049 67.005C322.149 66.727 322.199 66.383 322.199 65.973C322.199 65.809 322.176 65.619 322.131 65.406C322.085 65.192 321.992 64.987 321.851 64.791C321.709 64.595 321.511 64.431 321.256 64.299C321 64.166 320.663 64.1 320.244 64.1H319.014Z" fill="white"/>
<path d="M333 67.7359V71.6319C332.79 71.8969 332.556 72.1119 332.296 72.2809C332.036 72.4499 331.763 72.5889 331.476 72.6979C331.189 72.8069 330.893 72.8849 330.587 72.9299C330.281 72.9779 329.979 72.9999 329.678 72.9999C329.076 72.9999 328.523 72.8909 328.017 72.6719C327.511 72.4529 327.069 72.1299 326.691 71.7009C326.313 71.2719 326.016 70.7349 325.802 70.0879C325.588 69.4409 325.481 68.6929 325.481 67.8459C325.481 66.9989 325.588 66.2529 325.802 65.6109C326.016 64.9679 326.312 64.4329 326.691 64.0049C327.069 63.5759 327.513 63.2509 328.024 63.0269C328.534 62.8029 329.086 62.6919 329.678 62.6919C330.225 62.6919 330.735 62.7829 331.209 62.9649C331.683 63.1479 332.106 63.4209 332.48 63.7849L331.345 64.7969C331.126 64.5319 330.875 64.3409 330.593 64.2229C330.31 64.1049 330.019 64.0449 329.718 64.0449C329.381 64.0449 329.059 64.1079 328.754 64.2359C328.448 64.3639 328.175 64.5799 327.934 64.8849C327.692 65.1909 327.503 65.5839 327.367 66.0679C327.231 66.5519 327.157 67.1429 327.148 67.8449C327.157 68.5289 327.228 69.1209 327.36 69.6219C327.492 70.1229 327.674 70.5329 327.907 70.8519C328.14 71.1709 328.404 71.4079 328.7 71.5629C328.996 71.7179 329.308 71.7949 329.637 71.7949C329.737 71.7949 329.871 71.7879 330.04 71.7739C330.208 71.7599 330.377 71.7379 330.546 71.7059C330.714 71.6739 330.876 71.6309 331.031 71.5759C331.186 71.5209 331.3 71.4439 331.373 71.3439V68.8559H329.664V67.7349H333V67.7359Z" fill="white"/>
<path d="M106.485 20H77.463C76.655 20 76 20.655 76 21.926V75C76 75.345 76.655 76 77.463 76H117.537C118.345 76 119 75.345 119 75V32.978C119 32.282 118.907 32.058 118.743 31.893L107.107 20.257C106.942 20.093 106.718 20 106.485 20Z" fill="#E9E9E0"/>
<path d="M107 20.1509V31.9999H118.849L107 20.1509Z" fill="#D9D7CA"/>
<path d="M89.014 53.324C88.666 53.324 88.332 53.211 88.047 52.998C87.006 52.217 86.866 51.348 86.932 50.756C87.114 49.128 89.127 47.424 92.917 45.688C94.421 42.392 95.852 38.331 96.705 34.938C95.707 32.766 94.737 29.948 95.444 28.295C95.692 27.716 96.001 27.272 96.578 27.08C96.806 27.004 97.382 26.908 97.594 26.908C98.098 26.908 98.541 27.557 98.855 27.957C99.15 28.333 99.819 29.13 98.482 34.759C99.83 37.543 101.74 40.379 103.57 42.321C104.881 42.084 106.009 41.963 106.928 41.963C108.494 41.963 109.443 42.328 109.83 43.08C110.15 43.702 110.019 44.429 109.44 45.24C108.883 46.019 108.115 46.431 107.22 46.431C106.004 46.431 104.588 45.663 103.009 44.146C100.172 44.739 96.859 45.797 94.181 46.968C93.345 48.742 92.544 50.171 91.798 51.219C90.773 52.654 89.889 53.324 89.014 53.324ZM91.676 48.198C89.539 49.399 88.668 50.386 88.605 50.942C88.595 51.034 88.568 51.276 89.036 51.634C89.185 51.587 90.055 51.19 91.676 48.198ZM105.313 43.756C106.128 44.383 106.327 44.7 106.86 44.7C107.094 44.7 107.761 44.69 108.07 44.259C108.219 44.05 108.277 43.916 108.3 43.844C108.177 43.779 108.014 43.647 107.125 43.647C106.62 43.648 105.985 43.67 105.313 43.756ZM97.843 37.174C97.128 39.648 96.184 42.319 95.169 44.738C97.259 43.927 99.531 43.219 101.665 42.718C100.315 41.15 98.966 39.192 97.843 37.174ZM97.236 28.712C97.138 28.745 95.906 30.469 97.332 31.928C98.281 29.813 97.279 28.698 97.236 28.712Z" fill="#CC4B4C"/>
<path d="M117.537 76H77.463C76.655 76 76 75.345 76 74.537V59H119V74.537C119 75.345 118.345 76 117.537 76Z" fill="#CC4B4C"/>
<path d="M86.885 73.0001H85.244V62.9241H88.142C88.57 62.9241 88.994 62.9921 89.413 63.1291C89.832 63.2661 90.208 63.4711 90.541 63.7441C90.874 64.0171 91.143 64.3481 91.348 64.7351C91.553 65.1221 91.656 65.5571 91.656 66.0411C91.656 66.5521 91.569 67.0141 91.396 67.4291C91.223 67.8441 90.981 68.1931 90.671 68.4751C90.361 68.7571 89.987 68.9761 89.55 69.1311C89.113 69.2861 88.629 69.3631 88.101 69.3631H86.884V73.0001H86.885ZM86.885 64.1681V68.1601H88.389C88.589 68.1601 88.787 68.1261 88.984 68.0571C89.18 67.9891 89.36 67.8771 89.524 67.7221C89.688 67.5671 89.82 67.3511 89.92 67.0731C90.02 66.7951 90.07 66.4511 90.07 66.0411C90.07 65.8771 90.047 65.6871 90.002 65.4741C89.956 65.2601 89.863 65.0551 89.722 64.8591C89.58 64.6631 89.382 64.4991 89.127 64.3671C88.872 64.2351 88.534 64.1691 88.115 64.1691H86.885V64.1681Z" fill="white"/>
<path d="M101.719 67.6821C101.719 68.5111 101.63 69.2201 101.452 69.8081C101.274 70.3961 101.049 70.8881 100.775 71.2851C100.501 71.6821 100.194 71.9941 99.852 72.2221C99.51 72.4501 99.18 72.6201 98.861 72.7351C98.542 72.8491 98.25 72.9221 97.986 72.9541C97.722 72.9841 97.526 73.0001 97.398 73.0001H93.584V62.9241H96.619C97.467 62.9241 98.212 63.0591 98.854 63.3271C99.496 63.5951 100.03 63.9541 100.454 64.4001C100.878 64.8461 101.194 65.3551 101.404 65.9241C101.614 66.4941 101.719 67.0801 101.719 67.6821ZM96.852 71.7971C97.964 71.7971 98.766 71.4421 99.258 70.7311C99.75 70.0201 99.996 68.9901 99.996 67.6411C99.996 67.2221 99.946 66.8071 99.846 66.3971C99.745 65.9871 99.552 65.6161 99.265 65.2831C98.978 64.9501 98.588 64.6811 98.096 64.4761C97.604 64.2711 96.966 64.1681 96.182 64.1681H95.225V71.7971H96.852Z" fill="white"/>
<path d="M105.766 64.1681V67.3401H109.977V68.4611H105.766V73.0001H104.098V62.9241H110.4V64.1681H105.766Z" fill="white"/>
<path d="M386.485 20H357.463C356.655 20 356 20.655 356 21.926V75C356 75.345 356.655 76 357.463 76H397.537C398.345 76 399 75.345 399 75V32.978C399 32.282 398.907 32.058 398.743 31.893L387.107 20.257C386.942 20.093 386.718 20 386.485 20Z" fill="#E9E9E0"/>
<path d="M387 20.1509V31.9999H398.849L387 20.1509Z" fill="#D9D7CA"/>
<path d="M369.014 53.324C368.666 53.324 368.332 53.211 368.047 52.998C367.006 52.217 366.866 51.348 366.932 50.756C367.114 49.128 369.127 47.424 372.917 45.688C374.421 42.392 375.852 38.331 376.705 34.938C375.707 32.766 374.737 29.948 375.444 28.295C375.692 27.716 376.001 27.272 376.578 27.08C376.806 27.004 377.382 26.908 377.594 26.908C378.098 26.908 378.541 27.557 378.855 27.957C379.15 28.333 379.819 29.13 378.482 34.759C379.83 37.543 381.74 40.379 383.57 42.321C384.881 42.084 386.009 41.963 386.928 41.963C388.494 41.963 389.443 42.328 389.83 43.08C390.15 43.702 390.019 44.429 389.44 45.24C388.883 46.019 388.115 46.431 387.22 46.431C386.004 46.431 384.588 45.663 383.009 44.146C380.172 44.739 376.859 45.797 374.181 46.968C373.345 48.742 372.544 50.171 371.798 51.219C370.773 52.654 369.889 53.324 369.014 53.324ZM371.676 48.198C369.539 49.399 368.668 50.386 368.605 50.942C368.595 51.034 368.568 51.276 369.036 51.634C369.185 51.587 370.055 51.19 371.676 48.198ZM385.313 43.756C386.128 44.383 386.327 44.7 386.86 44.7C387.094 44.7 387.761 44.69 388.07 44.259C388.219 44.05 388.277 43.916 388.3 43.844C388.177 43.779 388.014 43.647 387.125 43.647C386.62 43.648 385.985 43.67 385.313 43.756ZM377.843 37.174C377.128 39.648 376.184 42.319 375.169 44.738C377.259 43.927 379.531 43.219 381.665 42.718C380.315 41.15 378.966 39.192 377.843 37.174ZM377.236 28.712C377.138 28.745 375.906 30.469 377.332 31.928C378.281 29.813 377.279 28.698 377.236 28.712Z" fill="#CC4B4C"/>
<path d="M397.537 76H357.463C356.655 76 356 75.345 356 74.537V59H399V74.537C399 75.345 398.345 76 397.537 76Z" fill="#CC4B4C"/>
<path d="M366.885 73.0001H365.244V62.9241H368.142C368.57 62.9241 368.994 62.9921 369.413 63.1291C369.832 63.2661 370.208 63.4711 370.541 63.7441C370.874 64.0171 371.143 64.3481 371.348 64.7351C371.553 65.1221 371.656 65.5571 371.656 66.0411C371.656 66.5521 371.569 67.0141 371.396 67.4291C371.223 67.8441 370.981 68.1931 370.671 68.4751C370.361 68.7571 369.987 68.9761 369.55 69.1311C369.113 69.2861 368.629 69.3631 368.101 69.3631H366.884V73.0001H366.885ZM366.885 64.1681V68.1601H368.389C368.589 68.1601 368.787 68.1261 368.984 68.0571C369.18 67.9891 369.36 67.8771 369.524 67.7221C369.688 67.5671 369.82 67.3511 369.92 67.0731C370.02 66.7951 370.07 66.4511 370.07 66.0411C370.07 65.8771 370.047 65.6871 370.002 65.4741C369.956 65.2601 369.863 65.0551 369.722 64.8591C369.58 64.6631 369.382 64.4991 369.127 64.3671C368.872 64.2351 368.534 64.1691 368.115 64.1691H366.885V64.1681Z" fill="white"/>
<path d="M381.719 67.6821C381.719 68.5111 381.63 69.2201 381.452 69.8081C381.274 70.3961 381.049 70.8881 380.775 71.2851C380.501 71.6821 380.194 71.9941 379.852 72.2221C379.51 72.4501 379.18 72.6201 378.861 72.7351C378.542 72.8491 378.25 72.9221 377.986 72.9541C377.722 72.9841 377.526 73.0001 377.398 73.0001H373.584V62.9241H376.619C377.467 62.9241 378.212 63.0591 378.854 63.3271C379.496 63.5951 380.03 63.9541 380.454 64.4001C380.878 64.8461 381.194 65.3551 381.404 65.9241C381.614 66.4941 381.719 67.0801 381.719 67.6821ZM376.852 71.7971C377.964 71.7971 378.766 71.4421 379.258 70.7311C379.75 70.0201 379.996 68.9901 379.996 67.6411C379.996 67.2221 379.946 66.8071 379.846 66.3971C379.745 65.9871 379.552 65.6161 379.265 65.2831C378.978 64.9501 378.588 64.6811 378.096 64.4761C377.604 64.2711 376.966 64.1681 376.182 64.1681H375.225V71.7971H376.852Z" fill="white"/>
<path d="M385.766 64.1681V67.3401H389.977V68.4611H385.766V73.0001H384.098V62.9241H390.4V64.1681H385.766Z" fill="white"/>
<path d="M162.485 20H133.463C132.655 20 132 20.655 132 21.926V75C132 75.345 132.655 76 133.463 76H173.537C174.345 76 175 75.345 175 75V32.978C175 32.282 174.907 32.058 174.743 31.893L163.107 20.257C162.942 20.093 162.718 20 162.485 20Z" fill="#E9E9E0"/>
<path d="M173.537 76H133.463C132.655 76 132 75.345 132 74.537V59H175V74.537C175 75.345 174.345 76 173.537 76Z" fill="#659C35"/>
<path d="M163 20.1509V31.9999H174.849L163 20.1509Z" fill="#D9D7CA"/>
<path d="M142.885 73.0001H141.244V62.9241H144.142C144.57 62.9241 144.994 62.9921 145.413 63.1291C145.832 63.2661 146.208 63.4711 146.541 63.7441C146.874 64.0171 147.143 64.3481 147.348 64.7351C147.553 65.1221 147.656 65.5571 147.656 66.0411C147.656 66.5521 147.569 67.0141 147.396 67.4291C147.223 67.8441 146.981 68.1931 146.671 68.4751C146.361 68.7571 145.987 68.9761 145.55 69.1311C145.113 69.2861 144.629 69.3631 144.101 69.3631H142.884V73.0001H142.885ZM142.885 64.1681V68.1601H144.389C144.589 68.1601 144.787 68.1261 144.984 68.0571C145.18 67.9891 145.36 67.8771 145.524 67.7221C145.688 67.5671 145.82 67.3511 145.92 67.0731C146.02 66.7951 146.07 66.4511 146.07 66.0411C146.07 65.8771 146.047 65.6871 146.002 65.4741C145.956 65.2601 145.863 65.0551 145.722 64.8591C145.58 64.6631 145.382 64.4991 145.127 64.3671C144.872 64.2351 144.534 64.1691 144.115 64.1691H142.885V64.1681Z" fill="white"/>
<path d="M156.816 62.9241V73.0001H155.148L151.197 66.0551V73.0001H149.529V62.9241H151.197L155.148 69.8691V62.9241H156.816Z" fill="white"/>
<path d="M166.66 67.805V71.701C166.45 71.966 166.216 72.181 165.956 72.35C165.696 72.519 165.423 72.658 165.136 72.767C164.849 72.876 164.552 72.954 164.247 73C163.941 73.046 163.639 73.068 163.338 73.068C162.736 73.068 162.183 72.959 161.677 72.74C161.171 72.521 160.729 72.198 160.351 71.769C159.973 71.34 159.676 70.803 159.462 70.156C159.248 69.509 159.141 68.761 159.141 67.914C159.141 67.067 159.248 66.321 159.462 65.679C159.676 65.036 159.972 64.501 160.351 64.073C160.729 63.644 161.173 63.319 161.684 63.095C162.194 62.871 162.746 62.76 163.338 62.76C163.885 62.76 164.395 62.851 164.869 63.033C165.343 63.216 165.766 63.489 166.14 63.853L165.005 64.865C164.786 64.6 164.535 64.409 164.253 64.291C163.97 64.173 163.679 64.113 163.378 64.113C163.041 64.113 162.719 64.176 162.414 64.304C162.108 64.432 161.835 64.648 161.594 64.953C161.352 65.259 161.163 65.652 161.027 66.136C160.891 66.62 160.817 67.211 160.808 67.913C160.817 68.597 160.888 69.189 161.02 69.69C161.152 70.191 161.334 70.601 161.567 70.92C161.8 71.239 162.064 71.476 162.36 71.631C162.656 71.786 162.968 71.863 163.297 71.863C163.397 71.863 163.531 71.856 163.7 71.842C163.868 71.828 164.037 71.806 164.206 71.774C164.374 71.742 164.536 71.699 164.691 71.644C164.846 71.589 164.96 71.512 165.033 71.412V68.924H163.324V67.803H166.66V67.805Z" fill="white"/>
<path d="M144.431 39.0001C146.954 39.0001 149 36.9544 149 34.4311C149 31.9077 146.954 29.8621 144.431 29.8621C141.908 29.8621 139.862 31.9077 139.862 34.4311C139.862 36.9544 141.908 39.0001 144.431 39.0001Z" fill="#F3D55B"/>
<path d="M132 59H143H175V48L165 38.5L154.5 50L149.017 44.517L132 59Z" fill="#88C057"/>
<path d="M442.485 20H413.463C412.655 20 412 20.655 412 21.926V75C412 75.345 412.655 76 413.463 76H453.537C454.345 76 455 75.345 455 75V32.978C455 32.282 454.907 32.058 454.743 31.893L443.107 20.257C442.942 20.093 442.718 20 442.485 20Z" fill="#E9E9E0"/>
<path d="M453.537 76H413.463C412.655 76 412 75.345 412 74.537V59H455V74.537C455 75.345 454.345 76 453.537 76Z" fill="#3684FF"/>
<path d="M443 20.1509V31.9999H454.849L443 20.1509Z" fill="#D9D7CA"/>
<path d="M422.885 73.0001H421.244V62.9241H424.142C424.57 62.9241 424.994 62.9921 425.413 63.1291C425.832 63.2661 426.208 63.4711 426.541 63.7441C426.874 64.0171 427.143 64.3481 427.348 64.7351C427.553 65.1221 427.656 65.5571 427.656 66.0411C427.656 66.5521 427.569 67.0141 427.396 67.4291C427.223 67.8441 426.981 68.1931 426.671 68.4751C426.361 68.7571 425.987 68.9761 425.55 69.1311C425.113 69.2861 424.629 69.3631 424.101 69.3631H422.884V73.0001H422.885ZM422.885 64.1681V68.1601H424.389C424.589 68.1601 424.787 68.1261 424.984 68.0571C425.18 67.9891 425.36 67.8771 425.524 67.7221C425.688 67.5671 425.82 67.3511 425.92 67.0731C426.02 66.7951 426.07 66.4511 426.07 66.0411C426.07 65.8771 426.047 65.6871 426.002 65.4741C425.956 65.2601 425.863 65.0551 425.722 64.8591C425.58 64.6631 425.382 64.4991 425.127 64.3671C424.872 64.2351 424.534 64.1691 424.115 64.1691H422.885V64.1681Z" fill="white"/>
<path d="M436.816 62.9241V73.0001H435.148L431.197 66.0551V73.0001H429.529V62.9241H431.197L435.148 69.8691V62.9241H436.816Z" fill="white"/>
<path d="M446.66 67.805V71.701C446.45 71.966 446.216 72.181 445.956 72.35C445.696 72.519 445.423 72.658 445.136 72.767C444.849 72.876 444.552 72.954 444.247 73C443.941 73.046 443.639 73.068 443.338 73.068C442.736 73.068 442.183 72.959 441.677 72.74C441.171 72.521 440.729 72.198 440.351 71.769C439.973 71.34 439.676 70.803 439.462 70.156C439.248 69.509 439.141 68.761 439.141 67.914C439.141 67.067 439.248 66.321 439.462 65.679C439.676 65.036 439.972 64.501 440.351 64.073C440.729 63.644 441.173 63.319 441.684 63.095C442.194 62.871 442.746 62.76 443.338 62.76C443.885 62.76 444.395 62.851 444.869 63.033C445.343 63.216 445.766 63.489 446.14 63.853L445.005 64.865C444.786 64.6 444.535 64.409 444.253 64.291C443.97 64.173 443.679 64.113 443.378 64.113C443.041 64.113 442.719 64.176 442.414 64.304C442.108 64.432 441.835 64.648 441.594 64.953C441.352 65.259 441.163 65.652 441.027 66.136C440.891 66.62 440.817 67.211 440.808 67.913C440.817 68.597 440.888 69.189 441.02 69.69C441.152 70.191 441.334 70.601 441.567 70.92C441.8 71.239 442.064 71.476 442.36 71.631C442.656 71.786 442.968 71.863 443.297 71.863C443.397 71.863 443.531 71.856 443.7 71.842C443.868 71.828 444.037 71.806 444.206 71.774C444.374 71.742 444.536 71.699 444.691 71.644C444.846 71.589 444.96 71.512 445.033 71.412V68.924H443.324V67.803H446.66V67.805Z" fill="white"/>
<path d="M424.431 39.0001C426.954 39.0001 429 36.9544 429 34.4311C429 31.9077 426.954 29.8621 424.431 29.8621C421.908 29.8621 419.862 31.9077 419.862 34.4311C419.862 36.9544 421.908 39.0001 424.431 39.0001Z" fill="#F3D55B"/>
<path d="M412 59H423H455V48L445 38.5L434.5 50L429.017 44.517L412 59Z" fill="#5899FF"/>
<path d="M218.485 20H189.463C188.655 20 188 20.655 188 21.926V75C188 75.345 188.655 76 189.463 76H229.537C230.345 76 231 75.345 231 75V32.978C231 32.282 230.907 32.058 230.743 31.893L219.107 20.257C218.942 20.093 218.718 20 218.485 20Z" fill="#E9E9E0"/>
<path d="M219 20.1509V31.9999H230.849L219 20.1509Z" fill="#D9D7CA"/>
<path d="M207 55C212.523 55 217 50.5228 217 45C217 39.4772 212.523 35 207 35C201.477 35 197 39.4772 197 45C197 50.5228 201.477 55 207 55Z" fill="white"/>
<path d="M207 56C200.935 56 196 51.065 196 45C196 38.935 200.935 34 207 34C213.065 34 218 38.935 218 45C218 51.065 213.065 56 207 56ZM207 36C202.037 36 198 40.037 198 45C198 49.963 202.037 54 207 54C211.963 54 216 49.963 216 45C216 40.037 211.963 36 207 36Z" fill="#556080"/>
<path d="M224 65C223.744 65 223.488 64.902 223.293 64.707L212.293 53.707C211.902 53.316 211.902 52.684 212.293 52.293C212.684 51.902 213.316 51.902 213.707 52.293L224.707 63.293C225.098 63.684 225.098 64.316 224.707 64.707C224.512 64.902 224.256 65 224 65Z" fill="#556080"/>
<path d="M207 42H201C200.447 42 200 41.553 200 41C200 40.447 200.447 40 201 40H207C207.553 40 208 40.447 208 41C208 41.553 207.553 42 207 42Z" fill="#D1D4D1"/>
<path d="M212 42H210C209.447 42 209 41.553 209 41C209 40.447 209.447 40 210 40H212C212.553 40 213 40.447 213 41C213 41.553 212.553 42 212 42Z" fill="#D1D4D1"/>
<path d="M206 50H204C203.447 50 203 49.553 203 49C203 48.447 203.447 48 204 48H206C206.553 48 207 48.447 207 49C207 49.553 206.553 50 206 50Z" fill="#D1D4D1"/>
<path d="M212 50H210C209.447 50 209 49.553 209 49C209 48.447 209.447 48 210 48H212C212.553 48 213 48.447 213 49C213 49.553 212.553 50 212 50Z" fill="#D1D4D1"/>
<path d="M205 46H201C200.447 46 200 45.553 200 45C200 44.447 200.447 44 201 44H205C205.553 44 206 44.447 206 45C206 45.553 205.553 46 205 46Z" fill="#D1D4D1"/>
<path d="M214 46H209C208.447 46 208 45.553 208 45C208 44.447 208.447 44 209 44H214C214.553 44 215 44.447 215 45C215 45.553 214.553 46 214 46Z" fill="#D1D4D1"/>
<path d="M498.485 20H469.463C468.655 20 468 20.655 468 21.926V75C468 75.345 468.655 76 469.463 76H509.537C510.345 76 511 75.345 511 75V32.978C511 32.282 510.907 32.058 510.743 31.893L499.107 20.257C498.942 20.093 498.718 20 498.485 20Z" fill="#E9E9E0"/>
<path d="M499 20.1509V31.9999H510.849L499 20.1509Z" fill="#D9D7CA"/>
<path d="M487 55C492.523 55 497 50.5228 497 45C497 39.4772 492.523 35 487 35C481.477 35 477 39.4772 477 45C477 50.5228 481.477 55 487 55Z" fill="white"/>
<path d="M487 56C480.935 56 476 51.065 476 45C476 38.935 480.935 34 487 34C493.065 34 498 38.935 498 45C498 51.065 493.065 56 487 56ZM487 36C482.037 36 478 40.037 478 45C478 49.963 482.037 54 487 54C491.963 54 496 49.963 496 45C496 40.037 491.963 36 487 36Z" fill="#556080"/>
<path d="M504 65C503.744 65 503.488 64.902 503.293 64.707L492.293 53.707C491.902 53.316 491.902 52.684 492.293 52.293C492.684 51.902 493.316 51.902 493.707 52.293L504.707 63.293C505.098 63.684 505.098 64.316 504.707 64.707C504.512 64.902 504.256 65 504 65Z" fill="#556080"/>
<path d="M487 42H481C480.447 42 480 41.553 480 41C480 40.447 480.447 40 481 40H487C487.553 40 488 40.447 488 41C488 41.553 487.553 42 487 42Z" fill="#D1D4D1"/>
<path d="M492 42H490C489.447 42 489 41.553 489 41C489 40.447 489.447 40 490 40H492C492.553 40 493 40.447 493 41C493 41.553 492.553 42 492 42Z" fill="#D1D4D1"/>
<path d="M486 50H484C483.447 50 483 49.553 483 49C483 48.447 483.447 48 484 48H486C486.553 48 487 48.447 487 49C487 49.553 486.553 50 486 50Z" fill="#D1D4D1"/>
<path d="M492 50H490C489.447 50 489 49.553 489 49C489 48.447 489.447 48 490 48H492C492.553 48 493 48.447 493 49C493 49.553 492.553 50 492 50Z" fill="#D1D4D1"/>
<path d="M485 46H481C480.447 46 480 45.553 480 45C480 44.447 480.447 44 481 44H485C485.553 44 486 44.447 486 45C486 45.553 485.553 46 485 46Z" fill="#D1D4D1"/>
<path d="M494 46H489C488.447 46 488 45.553 488 45C488 44.447 488.447 44 489 44H494C494.553 44 495 44.447 495 45C495 45.553 494.553 46 494 46Z" fill="#D1D4D1"/>
<path d="M274.485 20H245.463C244.655 20 244 20.655 244 21.926V75C244 75.345 244.655 76 245.463 76H285.537C286.345 76 287 75.345 287 75V32.978C287 32.282 286.907 32.058 286.743 31.893L275.107 20.257C274.942 20.093 274.718 20 274.485 20Z" fill="#E9E9E0"/>
<path d="M275 20.1509V31.9999H286.849L275 20.1509Z" fill="#D9D7CA"/>
<path d="M285.537 76H245.463C244.655 76 244 75.345 244 74.537V59H287V74.537C287 75.345 286.345 76 285.537 76Z" fill="#556080"/>
<path d="M262.766 62.9241V64.2501L257.967 71.4551L257.694 71.6741H262.766V73.0001H256.067V71.6741L260.866 64.4691L261.153 64.2501H256.067V62.9241H262.766Z" fill="white"/>
<path d="M266.771 73.0001H265.103V62.9241H266.771V73.0001Z" fill="white"/>
<path d="M270.914 73.0001H269.273V62.9241H272.171C272.599 62.9241 273.023 62.9921 273.442 63.1291C273.861 63.2661 274.237 63.4711 274.57 63.7441C274.903 64.0171 275.172 64.3481 275.377 64.7351C275.582 65.1221 275.685 65.5571 275.685 66.0411C275.685 66.5521 275.598 67.0141 275.425 67.4291C275.252 67.8441 275.01 68.1931 274.7 68.4751C274.39 68.7571 274.016 68.9761 273.579 69.1311C273.142 69.2861 272.658 69.3631 272.13 69.3631H270.913V73.0001H270.914ZM270.914 64.1681V68.1601H272.418C272.618 68.1601 272.816 68.1261 273.013 68.0571C273.209 67.9891 273.389 67.8771 273.553 67.7221C273.717 67.5671 273.849 67.3511 273.949 67.0731C274.049 66.7951 274.099 66.4511 274.099 66.0411C274.099 65.8771 274.076 65.6871 274.031 65.4741C273.985 65.2601 273.892 65.0551 273.751 64.8591C273.609 64.6631 273.411 64.4991 273.156 64.3671C272.901 64.2351 272.563 64.1691 272.144 64.1691H270.914V64.1681Z" fill="white"/>
<path d="M266 44V42H268V40H266V38H268V36H266V34H268V32H266V30H268V28H266V26H264V28H262V30H264V32H262V34H264V36H262V38H264V40H262V42H264V44H260V49C260 51.757 262.243 54 265 54C267.757 54 270 51.757 270 49V44H266ZM268 49C268 50.654 266.654 52 265 52C263.346 52 262 50.654 262 49V46H268V49Z" fill="#C8BDB8"/>
<path d="M264 50H266C266.552 50 267 49.553 267 49C267 48.447 266.552 48 266 48H264C263.448 48 263 48.447 263 49C263 49.553 263.448 50 264 50Z" fill="#C8BDB8"/>
<path d="M554.485 20H525.463C524.655 20 524 20.655 524 21.926V75C524 75.345 524.655 76 525.463 76H565.537C566.345 76 567 75.345 567 75V32.978C567 32.282 566.907 32.058 566.743 31.893L555.107 20.257C554.942 20.093 554.718 20 554.485 20Z" fill="#E9E9E0"/>
<path d="M555 20.1509V31.9999H566.849L555 20.1509Z" fill="#D9D7CA"/>
<path d="M565.537 76H525.463C524.655 76 524 75.345 524 74.537V59H567V74.537C567 75.345 566.345 76 565.537 76Z" fill="#556080"/>
<path d="M542.766 62.9241V64.2501L537.967 71.4551L537.694 71.6741H542.766V73.0001H536.067V71.6741L540.866 64.4691L541.153 64.2501H536.067V62.9241H542.766Z" fill="white"/>
<path d="M546.771 73.0001H545.103V62.9241H546.771V73.0001Z" fill="white"/>
<path d="M550.914 73.0001H549.273V62.9241H552.171C552.599 62.9241 553.023 62.9921 553.442 63.1291C553.861 63.2661 554.237 63.4711 554.57 63.7441C554.903 64.0171 555.172 64.3481 555.377 64.7351C555.582 65.1221 555.685 65.5571 555.685 66.0411C555.685 66.5521 555.598 67.0141 555.425 67.4291C555.252 67.8441 555.01 68.1931 554.7 68.4751C554.39 68.7571 554.016 68.9761 553.579 69.1311C553.142 69.2861 552.658 69.3631 552.13 69.3631H550.913V73.0001H550.914ZM550.914 64.1681V68.1601H552.418C552.618 68.1601 552.816 68.1261 553.013 68.0571C553.209 67.9891 553.389 67.8771 553.553 67.7221C553.717 67.5671 553.849 67.3511 553.949 67.0731C554.049 66.7951 554.099 66.4511 554.099 66.0411C554.099 65.8771 554.076 65.6871 554.031 65.4741C553.985 65.2601 553.892 65.0551 553.751 64.8591C553.609 64.6631 553.411 64.4991 553.156 64.3671C552.901 64.2351 552.563 64.1691 552.144 64.1691H550.914V64.1681Z" fill="white"/>
<path d="M546 44V42H548V40H546V38H548V36H546V34H548V32H546V30H548V28H546V26H544V28H542V30H544V32H542V34H544V36H542V38H544V40H542V42H544V44H540V49C540 51.757 542.243 54 545 54C547.757 54 550 51.757 550 49V44H546ZM548 49C548 50.654 546.654 52 545 52C543.346 52 542 50.654 542 49V46H548V49Z" fill="#C8BDB8"/>
<path d="M544 50H546C546.552 50 547 49.553 547 49C547 48.447 546.552 48 546 48H544C543.448 48 543 48.447 543 49C543 49.553 543.448 50 544 50Z" fill="#C8BDB8"/>
<rect x="0.5" y="0.5" width="586" height="95" rx="4.5" stroke="#9747FF" stroke-dasharray="10 5"/>
</svg>
