<svg width="43" height="56" viewBox="0 0 43 56" fill="none" xmlns="http://www.w3.org/2000/svg">
<path d="M30.485 0H1.463C0.655 0 0 0.655 0 1.926V55C0 55.345 0.655 56 1.463 56H41.537C42.345 56 43 55.345 43 55V12.978C43 12.282 42.907 12.058 42.743 11.893L31.107 0.257C30.942 0.093 30.718 0 30.485 0Z" fill="#E9E9E0"/>
<path d="M31 0.150879V11.9999H42.849L31 0.150879Z" fill="#D9D7CA"/>
<path d="M12.431 19.0001C14.9544 19.0001 17 16.9544 17 14.4311C17 11.9077 14.9544 9.86206 12.431 9.86206C9.90761 9.86206 7.862 11.9077 7.862 14.4311C7.862 16.9544 9.90761 19.0001 12.431 19.0001Z" fill="#F3D55B"/>
<path d="M0 39H11H43V28L33 18.5L22.5 30L17.017 24.517L0 39Z" fill="#26B99A"/>
<path d="M41.537 56H1.463C0.655 56 0 55.345 0 54.537V39H43V54.537C43 55.345 42.345 56 41.537 56Z" fill="#14A085"/>
<path d="M14.926 42.6499V50.4979C14.926 50.9719 14.839 51.3709 14.666 51.6939C14.493 52.0169 14.26 52.2769 13.969 52.4729C13.677 52.6689 13.342 52.8059 12.964 52.8829C12.585 52.9609 12.196 52.9999 11.795 52.9999C11.594 52.9999 11.359 52.9789 11.091 52.9379C10.822 52.8969 10.544 52.8339 10.257 52.7469C9.97001 52.6599 9.69401 52.5619 9.43001 52.4529C9.16501 52.3439 8.94201 52.2209 8.76001 52.0839L9.45701 50.9769C9.54801 51.0399 9.67801 51.1069 9.84701 51.1749C10.015 51.2429 10.2 51.3069 10.401 51.3659C10.601 51.4259 10.811 51.4769 11.03 51.5229C11.249 51.5689 11.454 51.5909 11.645 51.5909C12.128 51.5909 12.513 51.4969 12.8 51.3109C13.087 51.1249 13.239 50.8069 13.258 50.3609V42.6499H14.926Z" fill="white"/>
<path d="M19.014 52.932H17.373V42.855H20.271C20.699 42.855 21.123 42.923 21.542 43.06C21.961 43.197 22.337 43.402 22.67 43.675C23.003 43.948 23.272 44.279 23.477 44.666C23.682 45.053 23.785 45.488 23.785 45.972C23.785 46.483 23.698 46.945 23.525 47.36C23.352 47.775 23.11 48.124 22.8 48.406C22.49 48.688 22.116 48.907 21.679 49.062C21.242 49.217 20.758 49.294 20.23 49.294H19.013V52.932H19.014ZM19.014 44.1V48.092H20.518C20.718 48.092 20.916 48.058 21.113 47.989C21.309 47.921 21.489 47.809 21.653 47.654C21.817 47.499 21.949 47.283 22.049 47.005C22.149 46.727 22.199 46.383 22.199 45.973C22.199 45.809 22.176 45.619 22.131 45.406C22.085 45.192 21.992 44.987 21.851 44.791C21.709 44.595 21.511 44.431 21.256 44.299C21 44.166 20.663 44.1 20.244 44.1H19.014Z" fill="white"/>
<path d="M33 47.7359V51.6319C32.79 51.8969 32.556 52.1119 32.296 52.2809C32.036 52.4499 31.763 52.5889 31.476 52.6979C31.189 52.8069 30.893 52.8849 30.587 52.9299C30.281 52.9779 29.979 52.9999 29.678 52.9999C29.076 52.9999 28.523 52.8909 28.017 52.6719C27.511 52.4529 27.069 52.1299 26.691 51.7009C26.313 51.2719 26.016 50.7349 25.802 50.0879C25.588 49.4409 25.481 48.6929 25.481 47.8459C25.481 46.9989 25.588 46.2529 25.802 45.6109C26.016 44.9679 26.312 44.4329 26.691 44.0049C27.069 43.5759 27.513 43.2509 28.024 43.0269C28.534 42.8029 29.086 42.6919 29.678 42.6919C30.225 42.6919 30.735 42.7829 31.209 42.9649C31.683 43.1479 32.106 43.4209 32.48 43.7849L31.345 44.7969C31.126 44.5319 30.875 44.3409 30.593 44.2229C30.31 44.1049 30.019 44.0449 29.718 44.0449C29.381 44.0449 29.059 44.1079 28.754 44.2359C28.448 44.3639 28.175 44.5799 27.934 44.8849C27.692 45.1909 27.503 45.5839 27.367 46.0679C27.231 46.5519 27.157 47.1429 27.148 47.8449C27.157 48.5289 27.228 49.1209 27.36 49.6219C27.492 50.1229 27.674 50.5329 27.907 50.8519C28.14 51.1709 28.404 51.4079 28.7 51.5629C28.996 51.7179 29.308 51.7949 29.637 51.7949C29.737 51.7949 29.871 51.7879 30.04 51.7739C30.208 51.7599 30.377 51.7379 30.546 51.7059C30.714 51.6739 30.876 51.6309 31.031 51.5759C31.186 51.5209 31.3 51.4439 31.373 51.3439V48.8559H29.664V47.7349H33V47.7359Z" fill="white"/>
</svg>
