<svg width="43" height="56" viewBox="0 0 43 56" fill="none" xmlns="http://www.w3.org/2000/svg">
<path d="M30.485 0H1.463C0.655 0 0 0.655 0 1.926V55C0 55.345 0.655 56 1.463 56H41.537C42.345 56 43 55.345 43 55V12.978C43 12.282 42.907 12.058 42.743 11.893L31.107 0.257C30.942 0.093 30.718 0 30.485 0Z" fill="#E9E9E0"/>
<path d="M31 0.150879V11.9999H42.849L31 0.150879Z" fill="#D9D7CA"/>
<path d="M13.014 33.324C12.666 33.324 12.332 33.211 12.047 32.998C11.006 32.217 10.866 31.348 10.932 30.756C11.114 29.128 13.127 27.424 16.917 25.688C18.421 22.392 19.852 18.331 20.705 14.938C19.707 12.766 18.737 9.94796 19.444 8.29496C19.692 7.71596 20.001 7.27196 20.578 7.07996C20.806 7.00396 21.382 6.90796 21.594 6.90796C22.098 6.90796 22.541 7.55696 22.855 7.95696C23.15 8.33296 23.819 9.12996 22.482 14.759C23.83 17.543 25.74 20.379 27.57 22.321C28.881 22.084 30.009 21.963 30.928 21.963C32.494 21.963 33.443 22.328 33.83 23.08C34.15 23.702 34.019 24.429 33.44 25.24C32.883 26.019 32.115 26.431 31.22 26.431C30.004 26.431 28.588 25.663 27.009 24.146C24.172 24.739 20.859 25.797 18.181 26.968C17.345 28.742 16.544 30.171 15.798 31.219C14.773 32.654 13.889 33.324 13.014 33.324ZM15.676 28.198C13.539 29.399 12.668 30.386 12.605 30.942C12.595 31.034 12.568 31.276 13.036 31.634C13.185 31.587 14.055 31.19 15.676 28.198ZM29.313 23.756C30.128 24.383 30.327 24.7 30.86 24.7C31.094 24.7 31.761 24.69 32.07 24.259C32.219 24.05 32.277 23.916 32.3 23.844C32.177 23.779 32.014 23.647 31.125 23.647C30.62 23.648 29.985 23.67 29.313 23.756ZM21.843 17.174C21.128 19.648 20.184 22.319 19.169 24.738C21.259 23.927 23.531 23.219 25.665 22.718C24.315 21.15 22.966 19.192 21.843 17.174ZM21.236 8.71196C21.138 8.74496 19.906 10.469 21.332 11.928C22.281 9.81296 21.279 8.69796 21.236 8.71196Z" fill="#CC4B4C"/>
<path d="M41.537 56H1.463C0.655 56 0 55.345 0 54.537V39H43V54.537C43 55.345 42.345 56 41.537 56Z" fill="#CC4B4C"/>
<path d="M10.885 53.0001H9.24399V42.9241H12.142C12.57 42.9241 12.994 42.9921 13.413 43.1291C13.832 43.2661 14.208 43.4711 14.541 43.7441C14.874 44.0171 15.143 44.3481 15.348 44.7351C15.553 45.1221 15.656 45.5571 15.656 46.0411C15.656 46.5521 15.569 47.0141 15.396 47.4291C15.223 47.8441 14.981 48.1931 14.671 48.4751C14.361 48.7571 13.987 48.9761 13.55 49.1311C13.113 49.2861 12.629 49.3631 12.101 49.3631H10.884V53.0001H10.885ZM10.885 44.1681V48.1601H12.389C12.589 48.1601 12.787 48.1261 12.984 48.0571C13.18 47.9891 13.36 47.8771 13.524 47.7221C13.688 47.5671 13.82 47.3511 13.92 47.0731C14.02 46.7951 14.07 46.4511 14.07 46.0411C14.07 45.8771 14.047 45.6871 14.002 45.4741C13.956 45.2601 13.863 45.0551 13.722 44.8591C13.58 44.6631 13.382 44.4991 13.127 44.3671C12.872 44.2351 12.534 44.1691 12.115 44.1691H10.885V44.1681Z" fill="white"/>
<path d="M25.719 47.6821C25.719 48.5111 25.63 49.2201 25.452 49.8081C25.274 50.3961 25.049 50.8881 24.775 51.2851C24.501 51.6821 24.194 51.9941 23.852 52.2221C23.51 52.4501 23.18 52.6201 22.861 52.7351C22.542 52.8491 22.25 52.9221 21.986 52.9541C21.722 52.9841 21.526 53.0001 21.398 53.0001H17.584V42.9241H20.619C21.467 42.9241 22.212 43.0591 22.854 43.3271C23.496 43.5951 24.03 43.9541 24.454 44.4001C24.878 44.8461 25.194 45.3551 25.404 45.9241C25.614 46.4941 25.719 47.0801 25.719 47.6821ZM20.852 51.7971C21.964 51.7971 22.766 51.4421 23.258 50.7311C23.75 50.0201 23.996 48.9901 23.996 47.6411C23.996 47.2221 23.946 46.8071 23.846 46.3971C23.745 45.9871 23.552 45.6161 23.265 45.2831C22.978 44.9501 22.588 44.6811 22.096 44.4761C21.604 44.2711 20.966 44.1681 20.182 44.1681H19.225V51.7971H20.852V51.7971Z" fill="white"/>
<path d="M29.766 44.1681V47.3401H33.977V48.4611H29.766V53.0001H28.098V42.9241H34.4V44.1681H29.766Z" fill="white"/>
</svg>
