<svg width="43" height="56" viewBox="0 0 43 56" fill="none" xmlns="http://www.w3.org/2000/svg">
<path d="M30.485 0H1.463C0.655 0 0 0.655 0 1.926V55C0 55.345 0.655 56 1.463 56H41.537C42.345 56 43 55.345 43 55V12.978C43 12.282 42.907 12.058 42.743 11.893L31.107 0.257C30.942 0.093 30.718 0 30.485 0Z" fill="#E9E9E0"/>
<path d="M41.537 56H1.463C0.655 56 0 55.345 0 54.537V39H43V54.537C43 55.345 42.345 56 41.537 56Z" fill="#3684FF"/>
<path d="M31 0.150879V11.9999H42.849L31 0.150879Z" fill="#D9D7CA"/>
<path d="M10.885 53.0001H9.24399V42.9241H12.142C12.57 42.9241 12.994 42.9921 13.413 43.1291C13.832 43.2661 14.208 43.4711 14.541 43.7441C14.874 44.0171 15.143 44.3481 15.348 44.7351C15.553 45.1221 15.656 45.5571 15.656 46.0411C15.656 46.5521 15.569 47.0141 15.396 47.4291C15.223 47.8441 14.981 48.1931 14.671 48.4751C14.361 48.7571 13.987 48.9761 13.55 49.1311C13.113 49.2861 12.629 49.3631 12.101 49.3631H10.884V53.0001H10.885ZM10.885 44.1681V48.1601H12.389C12.589 48.1601 12.787 48.1261 12.984 48.0571C13.18 47.9891 13.36 47.8771 13.524 47.7221C13.688 47.5671 13.82 47.3511 13.92 47.0731C14.02 46.7951 14.07 46.4511 14.07 46.0411C14.07 45.8771 14.047 45.6871 14.002 45.4741C13.956 45.2601 13.863 45.0551 13.722 44.8591C13.58 44.6631 13.382 44.4991 13.127 44.3671C12.872 44.2351 12.534 44.1691 12.115 44.1691H10.885V44.1681Z" fill="white"/>
<path d="M24.816 42.9241V53.0001H23.148L19.197 46.0551V53.0001H17.529V42.9241H19.197L23.148 49.8691V42.9241H24.816Z" fill="white"/>
<path d="M34.66 47.805V51.701C34.45 51.966 34.216 52.181 33.956 52.35C33.696 52.519 33.423 52.658 33.136 52.767C32.849 52.876 32.552 52.954 32.247 53C31.941 53.046 31.639 53.068 31.338 53.068C30.736 53.068 30.183 52.959 29.677 52.74C29.171 52.521 28.729 52.198 28.351 51.769C27.973 51.34 27.676 50.803 27.462 50.156C27.248 49.509 27.141 48.761 27.141 47.914C27.141 47.067 27.248 46.321 27.462 45.679C27.676 45.036 27.972 44.501 28.351 44.073C28.729 43.644 29.173 43.319 29.684 43.095C30.194 42.871 30.746 42.76 31.338 42.76C31.885 42.76 32.395 42.851 32.869 43.033C33.343 43.216 33.766 43.489 34.14 43.853L33.005 44.865C32.786 44.6 32.535 44.409 32.253 44.291C31.97 44.173 31.679 44.113 31.378 44.113C31.041 44.113 30.719 44.176 30.414 44.304C30.108 44.432 29.835 44.648 29.594 44.953C29.352 45.259 29.163 45.652 29.027 46.136C28.891 46.62 28.817 47.211 28.808 47.913C28.817 48.597 28.888 49.189 29.02 49.69C29.152 50.191 29.334 50.601 29.567 50.92C29.8 51.239 30.064 51.476 30.36 51.631C30.656 51.786 30.968 51.863 31.297 51.863C31.397 51.863 31.531 51.856 31.7 51.842C31.868 51.828 32.037 51.806 32.206 51.774C32.374 51.742 32.536 51.699 32.691 51.644C32.846 51.589 32.96 51.512 33.033 51.412V48.924H31.324V47.803H34.66V47.805Z" fill="white"/>
<path d="M12.431 19.0001C14.9544 19.0001 17 16.9544 17 14.4311C17 11.9077 14.9544 9.86206 12.431 9.86206C9.90761 9.86206 7.862 11.9077 7.862 14.4311C7.862 16.9544 9.90761 19.0001 12.431 19.0001Z" fill="#F3D55B"/>
<path d="M0 39H11H43V28L33 18.5L22.5 30L17.017 24.517L0 39Z" fill="#5899FF"/>
</svg>
