<svg width="43" height="56" viewBox="0 0 43 56" fill="none" xmlns="http://www.w3.org/2000/svg">
<path d="M30.485 0H1.463C0.655 0 0 0.655 0 1.926V55C0 55.345 0.655 56 1.463 56H41.537C42.345 56 43 55.345 43 55V12.978C43 12.282 42.907 12.058 42.743 11.893L31.107 0.257C30.942 0.093 30.718 0 30.485 0Z" fill="#E9E9E0"/>
<path d="M31 0.150879V11.9999H42.849L31 0.150879Z" fill="#D9D7CA"/>
<path d="M41.537 56H1.463C0.655 56 0 55.345 0 54.537V39H43V54.537C43 55.345 42.345 56 41.537 56Z" fill="#556080"/>
<path d="M18.766 42.9241V44.2501L13.967 51.4551L13.694 51.6741H18.766V53.0001H12.067V51.6741L16.866 44.4691L17.153 44.2501H12.067V42.9241H18.766Z" fill="white"/>
<path d="M22.771 53.0001H21.103V42.9241H22.771V53.0001Z" fill="white"/>
<path d="M26.914 53.0001H25.273V42.9241H28.171C28.599 42.9241 29.023 42.9921 29.442 43.1291C29.861 43.2661 30.237 43.4711 30.57 43.7441C30.903 44.0171 31.172 44.3481 31.377 44.7351C31.582 45.1221 31.685 45.5571 31.685 46.0411C31.685 46.5521 31.598 47.0141 31.425 47.4291C31.252 47.8441 31.01 48.1931 30.7 48.4751C30.39 48.7571 30.016 48.9761 29.579 49.1311C29.142 49.2861 28.658 49.3631 28.13 49.3631H26.913V53.0001H26.914ZM26.914 44.1681V48.1601H28.418C28.618 48.1601 28.816 48.1261 29.013 48.0571C29.209 47.9891 29.389 47.8771 29.553 47.7221C29.717 47.5671 29.849 47.3511 29.949 47.0731C30.049 46.7951 30.099 46.4511 30.099 46.0411C30.099 45.8771 30.076 45.6871 30.031 45.4741C29.985 45.2601 29.892 45.0551 29.751 44.8591C29.609 44.6631 29.411 44.4991 29.156 44.3671C28.901 44.2351 28.563 44.1691 28.144 44.1691H26.914V44.1681Z" fill="white"/>
<path d="M22 24V22H24V20H22V18H24V16H22V14H24V12H22V10H24V8H22V6H20V8H18V10H20V12H18V14H20V16H18V18H20V20H18V22H20V24H16V29C16 31.757 18.243 34 21 34C23.757 34 26 31.757 26 29V24H22ZM24 29C24 30.654 22.654 32 21 32C19.346 32 18 30.654 18 29V26H24V29Z" fill="#C8BDB8"/>
<path d="M20 30H22C22.552 30 23 29.553 23 29C23 28.447 22.552 28 22 28H20C19.448 28 19 28.447 19 29C19 29.553 19.448 30 20 30Z" fill="#C8BDB8"/>
</svg>
