<svg width="42" height="42" viewBox="0 0 42 42" fill="none" xmlns="http://www.w3.org/2000/svg">
<path d="M21 0.166687C9.50002 0.166687 0.166687 9.50002 0.166687 21C0.166687 32.5 9.50002 41.8334 21 41.8334C32.5 41.8334 41.8334 32.5 41.8334 21C41.8334 9.50002 32.5 0.166687 21 0.166687ZM10.7292 34.0834C11.625 32.2084 17.0834 30.375 21 30.375C24.9167 30.375 30.3959 32.2084 31.2709 34.0834C28.4375 36.3334 24.875 37.6667 21 37.6667C17.125 37.6667 13.5625 36.3334 10.7292 34.0834ZM34.25 31.0625C31.2709 27.4375 24.0417 26.2084 21 26.2084C17.9584 26.2084 10.7292 27.4375 7.75002 31.0625C5.62502 28.2709 4.33335 24.7917 4.33335 21C4.33335 11.8125 11.8125 4.33335 21 4.33335C30.1875 4.33335 37.6667 11.8125 37.6667 21C37.6667 24.7917 36.375 28.2709 34.25 31.0625ZM21 8.50002C16.9584 8.50002 13.7084 11.75 13.7084 15.7917C13.7084 19.8334 16.9584 23.0834 21 23.0834C25.0417 23.0834 28.2917 19.8334 28.2917 15.7917C28.2917 11.75 25.0417 8.50002 21 8.50002ZM21 18.9167C19.2709 18.9167 17.875 17.5209 17.875 15.7917C17.875 14.0625 19.2709 12.6667 21 12.6667C22.7292 12.6667 24.125 14.0625 24.125 15.7917C24.125 17.5209 22.7292 18.9167 21 18.9167Z" fill="#F2F0FF"/>
</svg>
